<svg width="960" height="720" viewBox="0 0 960 720" fill="none" xmlns="http://www.w3.org/2000/svg">
  <rect width="960" height="720" rx="24" fill="#081219"/>
  <rect x="44" y="44" width="872" height="632" rx="18" fill="#0D1B22" stroke="#24424E" stroke-width="2"/>
  <path d="M44 122H916" stroke="#24424E" stroke-width="2"/>
  <circle cx="82" cy="83" r="10" fill="#FF4D67"/>
  <circle cx="116" cy="83" r="10" fill="#F7C65F"/>
  <circle cx="150" cy="83" r="10" fill="#41E6C5"/>
  <rect x="84" y="168" width="266" height="168" rx="12" fill="#102630" stroke="#2EBCFF" stroke-opacity=".55"/>
  <rect x="386" y="168" width="490" height="168" rx="12" fill="#102630" stroke="#41E6C5" stroke-opacity=".5"/>
  <rect x="84" y="372" width="792" height="222" rx="12" fill="#102630" stroke="#24424E"/>
  <path d="M126 552C186 474 243 506 292 444C336 389 401 418 452 374C512 322 580 352 638 292C698 230 760 244 832 190" stroke="#2EBCFF" stroke-width="5" stroke-linecap="round"/>
  <path d="M126 508C194 470 242 476 306 498C371 521 421 475 474 498C552 532 610 468 678 491C734 510 774 474 832 455" stroke="#FF4D67" stroke-width="4" stroke-linecap="round"/>
  <rect x="120" y="204" width="64" height="92" rx="8" fill="#2EBCFF" fill-opacity=".8"/>
  <rect x="206" y="234" width="64" height="62" rx="8" fill="#41E6C5" fill-opacity=".85"/>
  <rect x="292" y="190" width="24" height="106" rx="8" fill="#FF4D67" fill-opacity=".85"/>
  <text x="418" y="214" fill="#EDF8FA" font-family="Arial, sans-serif" font-size="28" font-weight="700">Detection Queue</text>
  <text x="418" y="260" fill="#9DB3BB" font-family="Arial, sans-serif" font-size="22">AUTH anomaly / PowerShell / DNS beacon</text>
  <text x="418" y="296" fill="#41E6C5" font-family="Arial, sans-serif" font-size="22">Status: triage-ready</text>
  <rect x="126" y="626" width="128" height="14" rx="7" fill="#2EBCFF"/>
  <rect x="276" y="626" width="210" height="14" rx="7" fill="#41E6C5"/>
  <rect x="508" y="626" width="102" height="14" rx="7" fill="#FF4D67"/>
  <rect x="632" y="626" width="200" height="14" rx="7" fill="#24424E"/>
</svg>
